<?xml version="1.0" encoding="UTF-8"?>
<!-- Generated by jsxcad -->
<!DOCTYPE svg PUBLIC "-//W3C//DTD SVG 1.1 Tiny//EN" "http://www.w3.org/Graphics/SVG/1.1/DTD/svg11-tiny.dtd">
<svg viewBox="-250 -250 500 500" width="500" height="500" xmlns="http://www.w3.org/2000/svg"><path d="M77.64043511167806,-81.37896884473834L39.237295075804184,-175.44931349098957L43.078510310135364,-90.70303472247022zM43.078510310135364,-90.70303472247022L84.60100771545781,4.662843520189617L77.64043511167806,-81.37896884473834z" style="fill:rgb(247,158,158)"/><path d="M39.237295075804184,-175.44931349098957L-81.65490423769198,-139.44016260720358L-89.38974582374385,-54.027955315662815z" style="fill:rgb(83,212,212)"/><path d="M-89.38974582374385,-54.027955315662815L-38.27667127552493,35.50412158892583L84.60100771545781,4.662843520189617z" style="fill:rgb(127,37,217)"/><path d="M-89.38974582374385,-54.027955315662815L43.078510310135364,-90.70303472247022L39.237295075804184,-175.44931349098957z" style="fill:rgb(83,212,212)"/><path d="M84.60100771545781,4.662843520189617L43.078510310135364,-90.70303472247022L-89.38974582374385,-54.027955315662815z" style="fill:rgb(127,37,217)"/><path d="M97.74554191289857,167.1465517204214L88.57127631411441,53.74057661532232L45.29566624417954,-41.7873391945418z" style="fill:rgb(247,158,158)"/><path d="M45.29566624417954,-41.7873391945418L-93.83400529636828,-4.952097048439818L-104.19465967106937,109.45570942381494z" style="fill:rgb(83,212,212)"/><path d="M-104.19465967106937,109.45570942381494L-44.020314693839424,197.05751378438444L97.74554191289857,167.1465517204214z" style="fill:rgb(127,37,217)"/><path d="M45.29566624417954,-41.7873391945418L50.49321512595405,72.88286270175008L97.74554191289857,167.1465517204214z" style="fill:rgb(247,158,158)"/><path d="M-104.19465967106937,109.45570942381494L50.49321512595405,72.88286270175008L45.29566624417954,-41.7873391945418z" style="fill:rgb(83,212,212)"/><path d="M97.74554191289857,167.1465517204214L50.49321512595405,72.88286270175008L-104.19465967106937,109.45570942381494z" style="fill:rgb(127,37,217)"/></svg>
